PathFileType	4	(X/Y/Z)	Walk10.trc
DataRate	CameraRate	NumFrames	NumMarkers	Units	OrigDataRate	OrigDataStartFrame	OrigNumFrames
200.000000	200.000000	4	61	mm	200.000000	426	495
Frame#	Times		LFHD		RFHD		CLAV		LASI		RASI		RACR1		RUA1		RFA1		RWRR		RCAR		LACR1		LUA1		LWRU		RTH3		LTH1		LTH3		LTH2		LTH4		LTB1		LTB2		LTB4		LLFC		RTB1		LCAR		LTB3		LFA1		STRN		RTB4		RWRU		RTB3		RTH2		LBHD		RMT5		RMFC		RLFC		RToe		RMT1		RTH4		RMMAL		RTB2		RTH1		LElbow		RElbow		LWRR		LMFC		T10		LPSI		RLMAL		RBHD		RBack		RCAL		RPSI		LToe		RElbowM		C7		LMMAL		LElbowM		LLMAL		LCAL		LMT5		LMT1
			X1	Y1	Z1	X2	Y2	Z2	X3	Y3	Z3	X4	Y4	Z4	X5	Y5	Z5	X6	Y6	Z6	X7	Y7	Z7	X8	Y8	Z8	X9	Y9	Z9	X10	Y10	Z10	X11	Y11	Z11	X12	Y12	Z12	X13	Y13	Z13	X14	Y14	Z14	X15	Y15	Z15	X16	Y16	Z16	X17	Y17	Z17	X18	Y18	Z18	X19	Y19	Z19	X20	Y20	Z20	X21	Y21	Z21	X22	Y22	Z22	X23	Y23	Z23	X24	Y24	Z24	X25	Y25	Z25	X26	Y26	Z26	X27	Y27	Z27	X28	Y28	Z28	X29	Y29	Z29	X30	Y30	Z30	X31	Y31	Z31	X32	Y32	Z32	X33	Y33	Z33	X34	Y34	Z34	X35	Y35	Z35	X36	Y36	Z36	X37	Y37	Z37	X38	Y38	Z38	X39	Y39	Z39	X40	Y40	Z40	X41	Y41	Z41	X42	Y42	Z42	X43	Y43	Z43	X44	Y44	Z44	X45	Y45	Z45	X46	Y46	Z46	X47	Y47	Z47	X48	Y48	Z48	X49	Y49	Z49	X50	Y50	Z50	X51	Y51	Z51	X52	Y52	Z52	X53	Y53	Z53	X54	Y54	Z54	X55	Y55	Z55	X56	Y56	Z56	X57	Y57	Z57	X58	Y58	Z58	X59	Y59	Z59	X60	Y60	Z60	X61	Y61	Z61

426	2.13	1015.2	1586.5	-0.86738	1010.7	1589.4	98.728	1017.8	1301.9	53.98	997.9	900.4	-55.769	1000.5	892.82	190.75	949.73	1331.4	221.69	942.95	1164.7	281.72	1012.2	898.55	365.4	1107.3	812.47	347.26	1111.9	753.48	405.74	942	1340.9	-102.02	909.1	1170.9	-166.69	888.55	774.18	-248.86	926.61	553.65	231.81	978.89	733.51	-125.39	1025.9	572.92	-82.926	1055.6	673.95	-88.967	1001.9	652	-106.25	1105.9	347.52	17.137	1090.8	257.09	-35.773	1098.2	261.51	24.446	1067.4	441.56	-55.309	824.6	311.64	188.79	840.56	718.2	-278.55	1096.1	177.83	34.138	854.58	893.7	-234.11	1044.9	1166.4	58.305	750.77	264.98	184.93	1051.4	787.13	377.14	677.01	221.32	179.15	985.6	638.32	216.1	890.39	1492.3	-25.789	544.91	87.908	197.45	870.15	403.33	87.148	892.41	405.76	214.24	592.41	28.234	148.57	570.96	69.919	116.44	934.54	636.03	243.91	578	202.96	118.08	724.52	305.32	223.88	946.23	721.46	260.18	861.7	1023.5	-191.71	931.39	1002.1	327.61	822.27	778.27	-227.34	1040.9	433.8	74.163	833.23	1187.7	63.441	822.91	948.88	20.35	555.45	207.98	197.33	885.64	1502.9	116.39	830.62	1274.7	129.56	518.1	244.42	156.16	827.46	940.74	120.63	1242.2	28.062	38.009	917.44	988.04	249.24	903.67	1399.2	50.916	1058	84.157	71.852	858.92	999.57	-119.97	1050	63.352	-8.1663	992.83	35.366	33.824	1155.2	23.892	-18.064	1186.6	31.547	64.594
427	2.135	1022.5	1587.2	-1.7183	1018	1590.3	97.879	1025.2	1302.6	53.579	1004.7	901.43	-56.535	1007.4	893.51	190.18	957.18	1332.3	221.15	950.24	1165.5	281.18	1017.2	898.34	365.03	1111.2	810.9	347.28	1114.8	751.91	405.77	949.79	1341.5	-102.5	918.27	1171.4	-167.41	903.91	774.55	-250.25	939.17	553.51	231.13	985.13	734.26	-125.78	1030.8	573.33	-83.311	1061.4	674.08	-89.355	1007.5	652.58	-106.65	1108.9	346.99	16.771	1092.8	256.67	-36.022	1100.3	261.05	24.177	1071.2	441.38	-55.698	838.85	311.78	187.51	857.24	718.01	-280.74	1097.3	177.42	33.963	867.86	893.47	-235.87	1052	1166.9	57.938	764.34	266.08	183.77	1054.8	786.3	376.9	689.9	223.46	178.22	996.63	639.33	215.13	897.9	1492.7	-26.548	556.28	92.024	197.47	885.96	402.35	85.844	907.24	405.35	213.4	602.64	30.02	149.5	582.38	73.145	116.9	945.63	635.98	243.1	590.46	206.55	117.63	738.92	306.47	223.29	955.8	721.72	259.32	872.52	1023.5	-193.25	937.99	1002.9	326.92	837.2	777.63	-229.63	1045	433.94	73.825	840.34	1188.7	62.988	829.71	949.59	20.31	568.14	211.91	196.93	893.05	1503.7	115.6	837.86	1275.8	129.11	531.02	248.81	155.76	834.3	941.36	120.5	1242.2	27.733	38.004	924.42	988.99	248.41	911.11	1400	50.349	1058.2	84.173	71.835	869.37	999.4	-121.55	1050	63.324	-8.1994	992.82	35.379	33.759	1155.1	23.867	-18.296	1186.6	31.363	64.596
428	2.14	1029.9	1588	-2.5366	1025.3	1591.3	97.062	1032.4	1303.3	53.213	1011.6	902.46	-57.283	1014.2	894.32	189.67	964.52	1333.2	220.64	957.44	1166.4	280.68	1022.2	898.15	364.66	1115.1	809.36	347.25	1117.5	750.37	405.74	957.53	1342.2	-102.95	927.38	1171.9	-168.1	919.38	775.05	-251.53	951.59	553.61	230.47	991.29	735	-126.15	1035.6	573.7	-83.672	1067	674.15	-89.717	1012.9	653.13	-107.01	1111.7	346.45	16.372	1094.5	256.25	-36.289	1102.2	260.6	23.876	1074.8	441.16	-56.067	853.26	312.12	186.17	874.09	717.95	-282.8	1098.4	177.01	33.748	881.22	893.31	-237.57	1058.9	1167.5	57.624	778.17	267.28	182.56	1058.1	785.52	376.63	703.13	225.58	177.23	1007.5	640.53	214.23	905.38	1493.3	-27.272	568.57	95.893	197.43	901.69	401.77	84.54	922.08	405.2	212.55	614.06	31.963	150.22	594.68	76.277	117.22	956.62	636.15	242.35	603.3	209.98	117.12	753.51	307.65	222.66	965.24	722.15	258.52	883.34	1023.5	-194.76	944.59	1003.7	326.25	852.29	777.08	-231.84	1048.9	434.07	73.514	847.4	1189.7	62.528	836.49	950.36	20.203	581.22	215.58	196.45	900.43	1504.5	114.85	845.02	1276.9	128.66	544.14	252.75	155.29	841.1	942.05	120.3	1242.2	27.508	37.965	931.39	989.94	247.63	918.49	1400.9	49.81	1058.4	84.184	71.823	879.82	999.27	-123.09	1050	63.29	-8.2204	992.78	35.369	33.714	1155.1	23.869	-18.498	1186.6	31.248	64.585
429	2.145	1037.3	1588.8	-3.3188	1032.6	1592.2	96.28	1039.6	1304.1	52.88	1018.4	903.47	-58.003	1020.9	895.24	189.21	971.73	1334.2	220.18	964.55	1167.3	280.21	1027.2	897.99	364.27	1118.8	807.84	347.18	1120.2	748.86	405.66	965.23	1342.9	-103.37	936.44	1172.4	-168.74	934.96	775.69	-252.7	963.87	553.95	229.85	997.38	735.72	-126.48	1040.2	574.04	-84.008	1072.5	674.15	-90.054	1018.2	653.65	-107.34	1114.4	345.91	15.945	1096.1	255.84	-36.571	1104.1	260.14	23.548	1078.2	440.92	-56.412	867.83	312.66	184.81	891.08	718.04	-284.75	1099.5	176.61	33.496	894.65	893.25	-239.19	1065.9	1168.1	57.365	792.23	268.59	181.31	1061.4	784.79	376.33	716.69	227.67	176.21	1018.3	641.94	213.42	912.82	1494	-27.962	581.75	99.468	197.32	917.31	401.59	83.253	936.94	405.32	211.68	626.63	34.017	150.72	607.85	79.278	117.4	967.48	636.55	241.67	616.51	213.23	116.56	768.29	308.88	221.98	974.55	722.76	257.79	894.16	1023.6	-196.24	951.18	1004.6	325.6	867.51	776.64	-233.95	1052.4	434.19	73.225	854.41	1190.8	62.06	843.26	951.18	20.03	594.65	218.97	195.91	907.79	1505.4	114.13	852.11	1278	128.2	557.45	256.23	154.78	847.86	942.8	120.04	1242.2	27.362	37.902	938.32	990.89	246.88	925.79	1401.8	49.297	1058.5	84.19	71.819	890.27	999.19	-124.61	1049.9	63.249	-8.231	992.74	35.345	33.684	1155	23.889	-18.67	1186.5	31.183	64.565
